G04 #@! TF.GenerationSoftware,KiCad,Pcbnew,5.1.3-ffb9f22~84~ubuntu18.04.1*
G04 #@! TF.CreationDate,2019-07-27T17:07:59-05:00*
G04 #@! TF.ProjectId,2055-LPC51U68JBD64-breakout,32303535-2d4c-4504-9335-315536384a42,rev?*
G04 #@! TF.SameCoordinates,Original*
G04 #@! TF.FileFunction,Legend,Bot*
G04 #@! TF.FilePolarity,Positive*
%FSLAX46Y46*%
G04 Gerber Fmt 4.6, Leading zero omitted, Abs format (unit mm)*
G04 Created by KiCad (PCBNEW 5.1.3-ffb9f22~84~ubuntu18.04.1) date 2019-07-27 17:07:59*
%MOMM*%
%LPD*%
G04 APERTURE LIST*
%ADD10C,0.275000*%
%ADD11C,0.200000*%
%ADD12C,0.120000*%
%ADD13C,0.150000*%
%ADD14O,2.776200X1.776200*%
%ADD15O,1.726200X1.176200*%
%ADD16R,1.776200X1.776200*%
%ADD17O,1.776200X1.776200*%
%ADD18C,2.276200*%
%ADD19R,2.276200X2.276200*%
G04 APERTURE END LIST*
D10*
X187004095Y-109136571D02*
X187004095Y-107636571D01*
X186532666Y-109136571D02*
X186532666Y-108350857D01*
X186585047Y-108208000D01*
X186689809Y-108136571D01*
X186846952Y-108136571D01*
X186951714Y-108208000D01*
X187004095Y-108279428D01*
X186166000Y-108136571D02*
X185746952Y-108136571D01*
X186008857Y-107636571D02*
X186008857Y-108922285D01*
X185956476Y-109065142D01*
X185851714Y-109136571D01*
X185746952Y-109136571D01*
X185537428Y-108136571D02*
X185118380Y-108136571D01*
X185380285Y-107636571D02*
X185380285Y-108922285D01*
X185327904Y-109065142D01*
X185223142Y-109136571D01*
X185118380Y-109136571D01*
X184751714Y-108136571D02*
X184751714Y-109636571D01*
X184751714Y-108208000D02*
X184646952Y-108136571D01*
X184437428Y-108136571D01*
X184332666Y-108208000D01*
X184280285Y-108279428D01*
X184227904Y-108422285D01*
X184227904Y-108850857D01*
X184280285Y-108993714D01*
X184332666Y-109065142D01*
X184437428Y-109136571D01*
X184646952Y-109136571D01*
X184751714Y-109065142D01*
X183808857Y-109065142D02*
X183704095Y-109136571D01*
X183494571Y-109136571D01*
X183389809Y-109065142D01*
X183337428Y-108922285D01*
X183337428Y-108850857D01*
X183389809Y-108708000D01*
X183494571Y-108636571D01*
X183651714Y-108636571D01*
X183756476Y-108565142D01*
X183808857Y-108422285D01*
X183808857Y-108350857D01*
X183756476Y-108208000D01*
X183651714Y-108136571D01*
X183494571Y-108136571D01*
X183389809Y-108208000D01*
X182866000Y-108993714D02*
X182813619Y-109065142D01*
X182866000Y-109136571D01*
X182918380Y-109065142D01*
X182866000Y-108993714D01*
X182866000Y-109136571D01*
X182866000Y-108208000D02*
X182813619Y-108279428D01*
X182866000Y-108350857D01*
X182918380Y-108279428D01*
X182866000Y-108208000D01*
X182866000Y-108350857D01*
X181556476Y-107565142D02*
X182499333Y-109493714D01*
X180404095Y-107565142D02*
X181346952Y-109493714D01*
X179566000Y-108136571D02*
X179566000Y-109350857D01*
X179618380Y-109493714D01*
X179670761Y-109565142D01*
X179775523Y-109636571D01*
X179932666Y-109636571D01*
X180037428Y-109565142D01*
X179566000Y-109065142D02*
X179670761Y-109136571D01*
X179880285Y-109136571D01*
X179985047Y-109065142D01*
X180037428Y-108993714D01*
X180089809Y-108850857D01*
X180089809Y-108422285D01*
X180037428Y-108279428D01*
X179985047Y-108208000D01*
X179880285Y-108136571D01*
X179670761Y-108136571D01*
X179566000Y-108208000D01*
X179042190Y-109136571D02*
X179042190Y-108136571D01*
X179042190Y-107636571D02*
X179094571Y-107708000D01*
X179042190Y-107779428D01*
X178989809Y-107708000D01*
X179042190Y-107636571D01*
X179042190Y-107779428D01*
X178675523Y-108136571D02*
X178256476Y-108136571D01*
X178518380Y-107636571D02*
X178518380Y-108922285D01*
X178466000Y-109065142D01*
X178361238Y-109136571D01*
X178256476Y-109136571D01*
X177889809Y-109136571D02*
X177889809Y-107636571D01*
X177418380Y-109136571D02*
X177418380Y-108350857D01*
X177470761Y-108208000D01*
X177575523Y-108136571D01*
X177732666Y-108136571D01*
X177837428Y-108208000D01*
X177889809Y-108279428D01*
X176423142Y-108136571D02*
X176423142Y-109136571D01*
X176894571Y-108136571D02*
X176894571Y-108922285D01*
X176842190Y-109065142D01*
X176737428Y-109136571D01*
X176580285Y-109136571D01*
X176475523Y-109065142D01*
X176423142Y-108993714D01*
X175899333Y-109136571D02*
X175899333Y-107636571D01*
X175899333Y-108208000D02*
X175794571Y-108136571D01*
X175585047Y-108136571D01*
X175480285Y-108208000D01*
X175427904Y-108279428D01*
X175375523Y-108422285D01*
X175375523Y-108850857D01*
X175427904Y-108993714D01*
X175480285Y-109065142D01*
X175585047Y-109136571D01*
X175794571Y-109136571D01*
X175899333Y-109065142D01*
X174904095Y-108993714D02*
X174851714Y-109065142D01*
X174904095Y-109136571D01*
X174956476Y-109065142D01*
X174904095Y-108993714D01*
X174904095Y-109136571D01*
X173908857Y-109065142D02*
X174013619Y-109136571D01*
X174223142Y-109136571D01*
X174327904Y-109065142D01*
X174380285Y-108993714D01*
X174432666Y-108850857D01*
X174432666Y-108422285D01*
X174380285Y-108279428D01*
X174327904Y-108208000D01*
X174223142Y-108136571D01*
X174013619Y-108136571D01*
X173908857Y-108208000D01*
X173280285Y-109136571D02*
X173385047Y-109065142D01*
X173437428Y-108993714D01*
X173489809Y-108850857D01*
X173489809Y-108422285D01*
X173437428Y-108279428D01*
X173385047Y-108208000D01*
X173280285Y-108136571D01*
X173123142Y-108136571D01*
X173018380Y-108208000D01*
X172966000Y-108279428D01*
X172913619Y-108422285D01*
X172913619Y-108850857D01*
X172966000Y-108993714D01*
X173018380Y-109065142D01*
X173123142Y-109136571D01*
X173280285Y-109136571D01*
X172442190Y-109136571D02*
X172442190Y-108136571D01*
X172442190Y-108279428D02*
X172389809Y-108208000D01*
X172285047Y-108136571D01*
X172127904Y-108136571D01*
X172023142Y-108208000D01*
X171970761Y-108350857D01*
X171970761Y-109136571D01*
X171970761Y-108350857D02*
X171918380Y-108208000D01*
X171813619Y-108136571D01*
X171656476Y-108136571D01*
X171551714Y-108208000D01*
X171499333Y-108350857D01*
X171499333Y-109136571D01*
X170189809Y-107565142D02*
X171132666Y-109493714D01*
X169823142Y-108136571D02*
X169823142Y-109422285D01*
X169875523Y-109565142D01*
X169980285Y-109636571D01*
X170032666Y-109636571D01*
X169823142Y-107636571D02*
X169875523Y-107708000D01*
X169823142Y-107779428D01*
X169770761Y-107708000D01*
X169823142Y-107636571D01*
X169823142Y-107779428D01*
X169142190Y-109136571D02*
X169246952Y-109065142D01*
X169299333Y-108993714D01*
X169351714Y-108850857D01*
X169351714Y-108422285D01*
X169299333Y-108279428D01*
X169246952Y-108208000D01*
X169142190Y-108136571D01*
X168985047Y-108136571D01*
X168880285Y-108208000D01*
X168827904Y-108279428D01*
X168775523Y-108422285D01*
X168775523Y-108850857D01*
X168827904Y-108993714D01*
X168880285Y-109065142D01*
X168985047Y-109136571D01*
X169142190Y-109136571D01*
X168304095Y-109136571D02*
X168304095Y-107636571D01*
X167832666Y-109136571D02*
X167832666Y-108350857D01*
X167885047Y-108208000D01*
X167989809Y-108136571D01*
X168146952Y-108136571D01*
X168251714Y-108208000D01*
X168304095Y-108279428D01*
X167308857Y-108136571D02*
X167308857Y-109136571D01*
X167308857Y-108279428D02*
X167256476Y-108208000D01*
X167151714Y-108136571D01*
X166994571Y-108136571D01*
X166889809Y-108208000D01*
X166837428Y-108350857D01*
X166837428Y-109136571D01*
X166418380Y-108136571D02*
X166208857Y-109136571D01*
X165999333Y-108422285D01*
X165789809Y-109136571D01*
X165580285Y-108136571D01*
X165161238Y-109136571D02*
X165161238Y-108136571D01*
X165161238Y-107636571D02*
X165213619Y-107708000D01*
X165161238Y-107779428D01*
X165108857Y-107708000D01*
X165161238Y-107636571D01*
X165161238Y-107779428D01*
X164637428Y-108136571D02*
X164637428Y-109136571D01*
X164637428Y-108279428D02*
X164585047Y-108208000D01*
X164480285Y-108136571D01*
X164323142Y-108136571D01*
X164218380Y-108208000D01*
X164166000Y-108350857D01*
X164166000Y-109136571D01*
X163170761Y-109136571D02*
X163170761Y-108350857D01*
X163223142Y-108208000D01*
X163327904Y-108136571D01*
X163537428Y-108136571D01*
X163642190Y-108208000D01*
X163170761Y-109065142D02*
X163275523Y-109136571D01*
X163537428Y-109136571D01*
X163642190Y-109065142D01*
X163694571Y-108922285D01*
X163694571Y-108779428D01*
X163642190Y-108636571D01*
X163537428Y-108565142D01*
X163275523Y-108565142D01*
X163170761Y-108493714D01*
X162646952Y-108136571D02*
X162646952Y-109136571D01*
X162646952Y-108279428D02*
X162594571Y-108208000D01*
X162489809Y-108136571D01*
X162332666Y-108136571D01*
X162227904Y-108208000D01*
X162175523Y-108350857D01*
X162175523Y-109136571D01*
X161704095Y-109065142D02*
X161599333Y-109136571D01*
X161389809Y-109136571D01*
X161285047Y-109065142D01*
X161232666Y-108922285D01*
X161232666Y-108850857D01*
X161285047Y-108708000D01*
X161389809Y-108636571D01*
X161546952Y-108636571D01*
X161651714Y-108565142D01*
X161704095Y-108422285D01*
X161704095Y-108350857D01*
X161651714Y-108208000D01*
X161546952Y-108136571D01*
X161389809Y-108136571D01*
X161285047Y-108208000D01*
X159975523Y-107565142D02*
X160918380Y-109493714D01*
X159661238Y-107779428D02*
X159608857Y-107708000D01*
X159504095Y-107636571D01*
X159242190Y-107636571D01*
X159137428Y-107708000D01*
X159085047Y-107779428D01*
X159032666Y-107922285D01*
X159032666Y-108065142D01*
X159085047Y-108279428D01*
X159713619Y-109136571D01*
X159032666Y-109136571D01*
X158351714Y-107636571D02*
X158246952Y-107636571D01*
X158142190Y-107708000D01*
X158089809Y-107779428D01*
X158037428Y-107922285D01*
X157985047Y-108208000D01*
X157985047Y-108565142D01*
X158037428Y-108850857D01*
X158089809Y-108993714D01*
X158142190Y-109065142D01*
X158246952Y-109136571D01*
X158351714Y-109136571D01*
X158456476Y-109065142D01*
X158508857Y-108993714D01*
X158561238Y-108850857D01*
X158613619Y-108565142D01*
X158613619Y-108208000D01*
X158561238Y-107922285D01*
X158508857Y-107779428D01*
X158456476Y-107708000D01*
X158351714Y-107636571D01*
X156989809Y-107636571D02*
X157513619Y-107636571D01*
X157565999Y-108350857D01*
X157513619Y-108279428D01*
X157408857Y-108208000D01*
X157146952Y-108208000D01*
X157042190Y-108279428D01*
X156989809Y-108350857D01*
X156937428Y-108493714D01*
X156937428Y-108850857D01*
X156989809Y-108993714D01*
X157042190Y-109065142D01*
X157146952Y-109136571D01*
X157408857Y-109136571D01*
X157513619Y-109065142D01*
X157565999Y-108993714D01*
X155942190Y-107636571D02*
X156465999Y-107636571D01*
X156518380Y-108350857D01*
X156465999Y-108279428D01*
X156361238Y-108208000D01*
X156099333Y-108208000D01*
X155994571Y-108279428D01*
X155942190Y-108350857D01*
X155889809Y-108493714D01*
X155889809Y-108850857D01*
X155942190Y-108993714D01*
X155994571Y-109065142D01*
X156099333Y-109136571D01*
X156361238Y-109136571D01*
X156465999Y-109065142D01*
X156518380Y-108993714D01*
X155418380Y-108565142D02*
X154580285Y-108565142D01*
X153532666Y-109136571D02*
X154056476Y-109136571D01*
X154056476Y-107636571D01*
X153165999Y-109136571D02*
X153165999Y-107636571D01*
X152746952Y-107636571D01*
X152642190Y-107708000D01*
X152589809Y-107779428D01*
X152537428Y-107922285D01*
X152537428Y-108136571D01*
X152589809Y-108279428D01*
X152642190Y-108350857D01*
X152746952Y-108422285D01*
X153165999Y-108422285D01*
X151437428Y-108993714D02*
X151489809Y-109065142D01*
X151646952Y-109136571D01*
X151751714Y-109136571D01*
X151908857Y-109065142D01*
X152013619Y-108922285D01*
X152065999Y-108779428D01*
X152118380Y-108493714D01*
X152118380Y-108279428D01*
X152065999Y-107993714D01*
X152013619Y-107850857D01*
X151908857Y-107708000D01*
X151751714Y-107636571D01*
X151646952Y-107636571D01*
X151489809Y-107708000D01*
X151437428Y-107779428D01*
X150442190Y-107636571D02*
X150965999Y-107636571D01*
X151018380Y-108350857D01*
X150965999Y-108279428D01*
X150861238Y-108208000D01*
X150599333Y-108208000D01*
X150494571Y-108279428D01*
X150442190Y-108350857D01*
X150389809Y-108493714D01*
X150389809Y-108850857D01*
X150442190Y-108993714D01*
X150494571Y-109065142D01*
X150599333Y-109136571D01*
X150861238Y-109136571D01*
X150965999Y-109065142D01*
X151018380Y-108993714D01*
X149342190Y-109136571D02*
X149970761Y-109136571D01*
X149656476Y-109136571D02*
X149656476Y-107636571D01*
X149761238Y-107850857D01*
X149865999Y-107993714D01*
X149970761Y-108065142D01*
X148870761Y-107636571D02*
X148870761Y-108850857D01*
X148818380Y-108993714D01*
X148765999Y-109065142D01*
X148661238Y-109136571D01*
X148451714Y-109136571D01*
X148346952Y-109065142D01*
X148294571Y-108993714D01*
X148242190Y-108850857D01*
X148242190Y-107636571D01*
X147246952Y-107636571D02*
X147456476Y-107636571D01*
X147561238Y-107708000D01*
X147613619Y-107779428D01*
X147718380Y-107993714D01*
X147770761Y-108279428D01*
X147770761Y-108850857D01*
X147718380Y-108993714D01*
X147665999Y-109065142D01*
X147561238Y-109136571D01*
X147351714Y-109136571D01*
X147246952Y-109065142D01*
X147194571Y-108993714D01*
X147142190Y-108850857D01*
X147142190Y-108493714D01*
X147194571Y-108350857D01*
X147246952Y-108279428D01*
X147351714Y-108208000D01*
X147561238Y-108208000D01*
X147665999Y-108279428D01*
X147718380Y-108350857D01*
X147770761Y-108493714D01*
X146513619Y-108279428D02*
X146618380Y-108208000D01*
X146670761Y-108136571D01*
X146723142Y-107993714D01*
X146723142Y-107922285D01*
X146670761Y-107779428D01*
X146618380Y-107708000D01*
X146513619Y-107636571D01*
X146304095Y-107636571D01*
X146199333Y-107708000D01*
X146146952Y-107779428D01*
X146094571Y-107922285D01*
X146094571Y-107993714D01*
X146146952Y-108136571D01*
X146199333Y-108208000D01*
X146304095Y-108279428D01*
X146513619Y-108279428D01*
X146618380Y-108350857D01*
X146670761Y-108422285D01*
X146723142Y-108565142D01*
X146723142Y-108850857D01*
X146670761Y-108993714D01*
X146618380Y-109065142D01*
X146513619Y-109136571D01*
X146304095Y-109136571D01*
X146199333Y-109065142D01*
X146146952Y-108993714D01*
X146094571Y-108850857D01*
X146094571Y-108565142D01*
X146146952Y-108422285D01*
X146199333Y-108350857D01*
X146304095Y-108279428D01*
X145308857Y-107636571D02*
X145308857Y-108708000D01*
X145361238Y-108922285D01*
X145465999Y-109065142D01*
X145623142Y-109136571D01*
X145727904Y-109136571D01*
X144418380Y-108350857D02*
X144261238Y-108422285D01*
X144208857Y-108493714D01*
X144156476Y-108636571D01*
X144156476Y-108850857D01*
X144208857Y-108993714D01*
X144261238Y-109065142D01*
X144365999Y-109136571D01*
X144785047Y-109136571D01*
X144785047Y-107636571D01*
X144418380Y-107636571D01*
X144313619Y-107708000D01*
X144261238Y-107779428D01*
X144208857Y-107922285D01*
X144208857Y-108065142D01*
X144261238Y-108208000D01*
X144313619Y-108279428D01*
X144418380Y-108350857D01*
X144785047Y-108350857D01*
X143685047Y-109136571D02*
X143685047Y-107636571D01*
X143423142Y-107636571D01*
X143265999Y-107708000D01*
X143161238Y-107850857D01*
X143108857Y-107993714D01*
X143056476Y-108279428D01*
X143056476Y-108493714D01*
X143108857Y-108779428D01*
X143161238Y-108922285D01*
X143265999Y-109065142D01*
X143423142Y-109136571D01*
X143685047Y-109136571D01*
X142113619Y-107636571D02*
X142323142Y-107636571D01*
X142427904Y-107708000D01*
X142480285Y-107779428D01*
X142585047Y-107993714D01*
X142637428Y-108279428D01*
X142637428Y-108850857D01*
X142585047Y-108993714D01*
X142532666Y-109065142D01*
X142427904Y-109136571D01*
X142218380Y-109136571D01*
X142113619Y-109065142D01*
X142061238Y-108993714D01*
X142008857Y-108850857D01*
X142008857Y-108493714D01*
X142061238Y-108350857D01*
X142113619Y-108279428D01*
X142218380Y-108208000D01*
X142427904Y-108208000D01*
X142532666Y-108279428D01*
X142585047Y-108350857D01*
X142637428Y-108493714D01*
X141065999Y-108136571D02*
X141065999Y-109136571D01*
X141327904Y-107565142D02*
X141589809Y-108636571D01*
X140908857Y-108636571D01*
X140489809Y-108565142D02*
X139651714Y-108565142D01*
X139127904Y-109136571D02*
X139127904Y-107636571D01*
X139127904Y-108208000D02*
X139023142Y-108136571D01*
X138813619Y-108136571D01*
X138708857Y-108208000D01*
X138656476Y-108279428D01*
X138604095Y-108422285D01*
X138604095Y-108850857D01*
X138656476Y-108993714D01*
X138708857Y-109065142D01*
X138813619Y-109136571D01*
X139023142Y-109136571D01*
X139127904Y-109065142D01*
X138132666Y-109136571D02*
X138132666Y-108136571D01*
X138132666Y-108422285D02*
X138080285Y-108279428D01*
X138027904Y-108208000D01*
X137923142Y-108136571D01*
X137818380Y-108136571D01*
X137032666Y-109065142D02*
X137137428Y-109136571D01*
X137346952Y-109136571D01*
X137451714Y-109065142D01*
X137504095Y-108922285D01*
X137504095Y-108350857D01*
X137451714Y-108208000D01*
X137346952Y-108136571D01*
X137137428Y-108136571D01*
X137032666Y-108208000D01*
X136980285Y-108350857D01*
X136980285Y-108493714D01*
X137504095Y-108636571D01*
X136037428Y-109136571D02*
X136037428Y-108350857D01*
X136089809Y-108208000D01*
X136194571Y-108136571D01*
X136404095Y-108136571D01*
X136508857Y-108208000D01*
X136037428Y-109065142D02*
X136142190Y-109136571D01*
X136404095Y-109136571D01*
X136508857Y-109065142D01*
X136561238Y-108922285D01*
X136561238Y-108779428D01*
X136508857Y-108636571D01*
X136404095Y-108565142D01*
X136142190Y-108565142D01*
X136037428Y-108493714D01*
X135513619Y-109136571D02*
X135513619Y-107636571D01*
X135408857Y-108565142D02*
X135094571Y-109136571D01*
X135094571Y-108136571D02*
X135513619Y-108708000D01*
X134465999Y-109136571D02*
X134570761Y-109065142D01*
X134623142Y-108993714D01*
X134675523Y-108850857D01*
X134675523Y-108422285D01*
X134623142Y-108279428D01*
X134570761Y-108208000D01*
X134465999Y-108136571D01*
X134308857Y-108136571D01*
X134204095Y-108208000D01*
X134151714Y-108279428D01*
X134099333Y-108422285D01*
X134099333Y-108850857D01*
X134151714Y-108993714D01*
X134204095Y-109065142D01*
X134308857Y-109136571D01*
X134465999Y-109136571D01*
X133156476Y-108136571D02*
X133156476Y-109136571D01*
X133627904Y-108136571D02*
X133627904Y-108922285D01*
X133575523Y-109065142D01*
X133470761Y-109136571D01*
X133313619Y-109136571D01*
X133208857Y-109065142D01*
X133156476Y-108993714D01*
X132789809Y-108136571D02*
X132370761Y-108136571D01*
X132632666Y-107636571D02*
X132632666Y-108922285D01*
X132580285Y-109065142D01*
X132475523Y-109136571D01*
X132370761Y-109136571D01*
D11*
X186661619Y-92945142D02*
X186623523Y-92888000D01*
X186547333Y-92830857D01*
X186356857Y-92830857D01*
X186280666Y-92888000D01*
X186242571Y-92945142D01*
X186204476Y-93059428D01*
X186204476Y-93173714D01*
X186242571Y-93345142D01*
X186699714Y-94030857D01*
X186204476Y-94030857D01*
X185709238Y-92830857D02*
X185633047Y-92830857D01*
X185556857Y-92888000D01*
X185518761Y-92945142D01*
X185480666Y-93059428D01*
X185442571Y-93288000D01*
X185442571Y-93573714D01*
X185480666Y-93802285D01*
X185518761Y-93916571D01*
X185556857Y-93973714D01*
X185633047Y-94030857D01*
X185709238Y-94030857D01*
X185785428Y-93973714D01*
X185823523Y-93916571D01*
X185861619Y-93802285D01*
X185899714Y-93573714D01*
X185899714Y-93288000D01*
X185861619Y-93059428D01*
X185823523Y-92945142D01*
X185785428Y-92888000D01*
X185709238Y-92830857D01*
X184718761Y-92830857D02*
X185099714Y-92830857D01*
X185137809Y-93402285D01*
X185099714Y-93345142D01*
X185023523Y-93288000D01*
X184833047Y-93288000D01*
X184756857Y-93345142D01*
X184718761Y-93402285D01*
X184680666Y-93516571D01*
X184680666Y-93802285D01*
X184718761Y-93916571D01*
X184756857Y-93973714D01*
X184833047Y-94030857D01*
X185023523Y-94030857D01*
X185099714Y-93973714D01*
X185137809Y-93916571D01*
X183956857Y-92830857D02*
X184337809Y-92830857D01*
X184375904Y-93402285D01*
X184337809Y-93345142D01*
X184261619Y-93288000D01*
X184071142Y-93288000D01*
X183994952Y-93345142D01*
X183956857Y-93402285D01*
X183918761Y-93516571D01*
X183918761Y-93802285D01*
X183956857Y-93916571D01*
X183994952Y-93973714D01*
X184071142Y-94030857D01*
X184261619Y-94030857D01*
X184337809Y-93973714D01*
X184375904Y-93916571D01*
X183575904Y-93573714D02*
X182966380Y-93573714D01*
X182204476Y-94030857D02*
X182585428Y-94030857D01*
X182585428Y-92830857D01*
X181937809Y-94030857D02*
X181937809Y-92830857D01*
X181633047Y-92830857D01*
X181556857Y-92888000D01*
X181518761Y-92945142D01*
X181480666Y-93059428D01*
X181480666Y-93230857D01*
X181518761Y-93345142D01*
X181556857Y-93402285D01*
X181633047Y-93459428D01*
X181937809Y-93459428D01*
X180680666Y-93916571D02*
X180718761Y-93973714D01*
X180833047Y-94030857D01*
X180909238Y-94030857D01*
X181023523Y-93973714D01*
X181099714Y-93859428D01*
X181137809Y-93745142D01*
X181175904Y-93516571D01*
X181175904Y-93345142D01*
X181137809Y-93116571D01*
X181099714Y-93002285D01*
X181023523Y-92888000D01*
X180909238Y-92830857D01*
X180833047Y-92830857D01*
X180718761Y-92888000D01*
X180680666Y-92945142D01*
X179956857Y-92830857D02*
X180337809Y-92830857D01*
X180375904Y-93402285D01*
X180337809Y-93345142D01*
X180261619Y-93288000D01*
X180071142Y-93288000D01*
X179994952Y-93345142D01*
X179956857Y-93402285D01*
X179918761Y-93516571D01*
X179918761Y-93802285D01*
X179956857Y-93916571D01*
X179994952Y-93973714D01*
X180071142Y-94030857D01*
X180261619Y-94030857D01*
X180337809Y-93973714D01*
X180375904Y-93916571D01*
X179156857Y-94030857D02*
X179614000Y-94030857D01*
X179385428Y-94030857D02*
X179385428Y-92830857D01*
X179461619Y-93002285D01*
X179537809Y-93116571D01*
X179614000Y-93173714D01*
X178814000Y-92830857D02*
X178814000Y-93802285D01*
X178775904Y-93916571D01*
X178737809Y-93973714D01*
X178661619Y-94030857D01*
X178509238Y-94030857D01*
X178433047Y-93973714D01*
X178394952Y-93916571D01*
X178356857Y-93802285D01*
X178356857Y-92830857D01*
X177633047Y-92830857D02*
X177785428Y-92830857D01*
X177861619Y-92888000D01*
X177899714Y-92945142D01*
X177975904Y-93116571D01*
X178014000Y-93345142D01*
X178014000Y-93802285D01*
X177975904Y-93916571D01*
X177937809Y-93973714D01*
X177861619Y-94030857D01*
X177709238Y-94030857D01*
X177633047Y-93973714D01*
X177594952Y-93916571D01*
X177556857Y-93802285D01*
X177556857Y-93516571D01*
X177594952Y-93402285D01*
X177633047Y-93345142D01*
X177709238Y-93288000D01*
X177861619Y-93288000D01*
X177937809Y-93345142D01*
X177975904Y-93402285D01*
X178014000Y-93516571D01*
X177099714Y-93345142D02*
X177175904Y-93288000D01*
X177214000Y-93230857D01*
X177252095Y-93116571D01*
X177252095Y-93059428D01*
X177214000Y-92945142D01*
X177175904Y-92888000D01*
X177099714Y-92830857D01*
X176947333Y-92830857D01*
X176871142Y-92888000D01*
X176833047Y-92945142D01*
X176794952Y-93059428D01*
X176794952Y-93116571D01*
X176833047Y-93230857D01*
X176871142Y-93288000D01*
X176947333Y-93345142D01*
X177099714Y-93345142D01*
X177175904Y-93402285D01*
X177214000Y-93459428D01*
X177252095Y-93573714D01*
X177252095Y-93802285D01*
X177214000Y-93916571D01*
X177175904Y-93973714D01*
X177099714Y-94030857D01*
X176947333Y-94030857D01*
X176871142Y-93973714D01*
X176833047Y-93916571D01*
X176794952Y-93802285D01*
X176794952Y-93573714D01*
X176833047Y-93459428D01*
X176871142Y-93402285D01*
X176947333Y-93345142D01*
X176223523Y-92830857D02*
X176223523Y-93688000D01*
X176261619Y-93859428D01*
X176337809Y-93973714D01*
X176452095Y-94030857D01*
X176528285Y-94030857D01*
X175575904Y-93402285D02*
X175461619Y-93459428D01*
X175423523Y-93516571D01*
X175385428Y-93630857D01*
X175385428Y-93802285D01*
X175423523Y-93916571D01*
X175461619Y-93973714D01*
X175537809Y-94030857D01*
X175842571Y-94030857D01*
X175842571Y-92830857D01*
X175575904Y-92830857D01*
X175499714Y-92888000D01*
X175461619Y-92945142D01*
X175423523Y-93059428D01*
X175423523Y-93173714D01*
X175461619Y-93288000D01*
X175499714Y-93345142D01*
X175575904Y-93402285D01*
X175842571Y-93402285D01*
X175042571Y-94030857D02*
X175042571Y-92830857D01*
X174852095Y-92830857D01*
X174737809Y-92888000D01*
X174661619Y-93002285D01*
X174623523Y-93116571D01*
X174585428Y-93345142D01*
X174585428Y-93516571D01*
X174623523Y-93745142D01*
X174661619Y-93859428D01*
X174737809Y-93973714D01*
X174852095Y-94030857D01*
X175042571Y-94030857D01*
X173899714Y-92830857D02*
X174052095Y-92830857D01*
X174128285Y-92888000D01*
X174166380Y-92945142D01*
X174242571Y-93116571D01*
X174280666Y-93345142D01*
X174280666Y-93802285D01*
X174242571Y-93916571D01*
X174204476Y-93973714D01*
X174128285Y-94030857D01*
X173975904Y-94030857D01*
X173899714Y-93973714D01*
X173861619Y-93916571D01*
X173823523Y-93802285D01*
X173823523Y-93516571D01*
X173861619Y-93402285D01*
X173899714Y-93345142D01*
X173975904Y-93288000D01*
X174128285Y-93288000D01*
X174204476Y-93345142D01*
X174242571Y-93402285D01*
X174280666Y-93516571D01*
X173137809Y-93230857D02*
X173137809Y-94030857D01*
X173328285Y-92773714D02*
X173518761Y-93630857D01*
X173023523Y-93630857D01*
X172718761Y-93573714D02*
X172109238Y-93573714D01*
X171728285Y-94030857D02*
X171728285Y-92830857D01*
X171728285Y-93288000D02*
X171652095Y-93230857D01*
X171499714Y-93230857D01*
X171423523Y-93288000D01*
X171385428Y-93345142D01*
X171347333Y-93459428D01*
X171347333Y-93802285D01*
X171385428Y-93916571D01*
X171423523Y-93973714D01*
X171499714Y-94030857D01*
X171652095Y-94030857D01*
X171728285Y-93973714D01*
X171004476Y-94030857D02*
X171004476Y-93230857D01*
X171004476Y-93459428D02*
X170966380Y-93345142D01*
X170928285Y-93288000D01*
X170852095Y-93230857D01*
X170775904Y-93230857D01*
X170204476Y-93973714D02*
X170280666Y-94030857D01*
X170433047Y-94030857D01*
X170509238Y-93973714D01*
X170547333Y-93859428D01*
X170547333Y-93402285D01*
X170509238Y-93288000D01*
X170433047Y-93230857D01*
X170280666Y-93230857D01*
X170204476Y-93288000D01*
X170166380Y-93402285D01*
X170166380Y-93516571D01*
X170547333Y-93630857D01*
X169480666Y-94030857D02*
X169480666Y-93402285D01*
X169518761Y-93288000D01*
X169594952Y-93230857D01*
X169747333Y-93230857D01*
X169823523Y-93288000D01*
X169480666Y-93973714D02*
X169556857Y-94030857D01*
X169747333Y-94030857D01*
X169823523Y-93973714D01*
X169861619Y-93859428D01*
X169861619Y-93745142D01*
X169823523Y-93630857D01*
X169747333Y-93573714D01*
X169556857Y-93573714D01*
X169480666Y-93516571D01*
X169099714Y-94030857D02*
X169099714Y-92830857D01*
X169023523Y-93573714D02*
X168794952Y-94030857D01*
X168794952Y-93230857D02*
X169099714Y-93688000D01*
X168337809Y-94030857D02*
X168414000Y-93973714D01*
X168452095Y-93916571D01*
X168490190Y-93802285D01*
X168490190Y-93459428D01*
X168452095Y-93345142D01*
X168414000Y-93288000D01*
X168337809Y-93230857D01*
X168223523Y-93230857D01*
X168147333Y-93288000D01*
X168109238Y-93345142D01*
X168071142Y-93459428D01*
X168071142Y-93802285D01*
X168109238Y-93916571D01*
X168147333Y-93973714D01*
X168223523Y-94030857D01*
X168337809Y-94030857D01*
X167385428Y-93230857D02*
X167385428Y-94030857D01*
X167728285Y-93230857D02*
X167728285Y-93859428D01*
X167690190Y-93973714D01*
X167614000Y-94030857D01*
X167499714Y-94030857D01*
X167423523Y-93973714D01*
X167385428Y-93916571D01*
X167118761Y-93230857D02*
X166814000Y-93230857D01*
X167004476Y-92830857D02*
X167004476Y-93859428D01*
X166966380Y-93973714D01*
X166890190Y-94030857D01*
X166814000Y-94030857D01*
X165480666Y-94030857D02*
X165747333Y-93459428D01*
X165937809Y-94030857D02*
X165937809Y-92830857D01*
X165633047Y-92830857D01*
X165556857Y-92888000D01*
X165518761Y-92945142D01*
X165480666Y-93059428D01*
X165480666Y-93230857D01*
X165518761Y-93345142D01*
X165556857Y-93402285D01*
X165633047Y-93459428D01*
X165937809Y-93459428D01*
X164833047Y-93973714D02*
X164909238Y-94030857D01*
X165061619Y-94030857D01*
X165137809Y-93973714D01*
X165175904Y-93859428D01*
X165175904Y-93402285D01*
X165137809Y-93288000D01*
X165061619Y-93230857D01*
X164909238Y-93230857D01*
X164833047Y-93288000D01*
X164794952Y-93402285D01*
X164794952Y-93516571D01*
X165175904Y-93630857D01*
X164528285Y-93230857D02*
X164337809Y-94030857D01*
X164147333Y-93230857D01*
X163309238Y-92830857D02*
X162814000Y-92830857D01*
X163080666Y-93288000D01*
X162966380Y-93288000D01*
X162890190Y-93345142D01*
X162852095Y-93402285D01*
X162814000Y-93516571D01*
X162814000Y-93802285D01*
X162852095Y-93916571D01*
X162890190Y-93973714D01*
X162966380Y-94030857D01*
X163194952Y-94030857D01*
X163271142Y-93973714D01*
X163309238Y-93916571D01*
X186166380Y-95916571D02*
X186204476Y-95973714D01*
X186318761Y-96030857D01*
X186394952Y-96030857D01*
X186509238Y-95973714D01*
X186585428Y-95859428D01*
X186623523Y-95745142D01*
X186661619Y-95516571D01*
X186661619Y-95345142D01*
X186623523Y-95116571D01*
X186585428Y-95002285D01*
X186509238Y-94888000D01*
X186394952Y-94830857D01*
X186318761Y-94830857D01*
X186204476Y-94888000D01*
X186166380Y-94945142D01*
X185709238Y-96030857D02*
X185785428Y-95973714D01*
X185823523Y-95916571D01*
X185861619Y-95802285D01*
X185861619Y-95459428D01*
X185823523Y-95345142D01*
X185785428Y-95288000D01*
X185709238Y-95230857D01*
X185594952Y-95230857D01*
X185518761Y-95288000D01*
X185480666Y-95345142D01*
X185442571Y-95459428D01*
X185442571Y-95802285D01*
X185480666Y-95916571D01*
X185518761Y-95973714D01*
X185594952Y-96030857D01*
X185709238Y-96030857D01*
X185099714Y-95230857D02*
X185099714Y-96430857D01*
X185099714Y-95288000D02*
X185023523Y-95230857D01*
X184871142Y-95230857D01*
X184794952Y-95288000D01*
X184756857Y-95345142D01*
X184718761Y-95459428D01*
X184718761Y-95802285D01*
X184756857Y-95916571D01*
X184794952Y-95973714D01*
X184871142Y-96030857D01*
X185023523Y-96030857D01*
X185099714Y-95973714D01*
X184452095Y-95230857D02*
X184261619Y-96030857D01*
X184071142Y-95230857D02*
X184261619Y-96030857D01*
X184337809Y-96316571D01*
X184375904Y-96373714D01*
X184452095Y-96430857D01*
X183766380Y-96030857D02*
X183766380Y-95230857D01*
X183766380Y-95459428D02*
X183728285Y-95345142D01*
X183690190Y-95288000D01*
X183614000Y-95230857D01*
X183537809Y-95230857D01*
X183271142Y-96030857D02*
X183271142Y-95230857D01*
X183271142Y-94830857D02*
X183309238Y-94888000D01*
X183271142Y-94945142D01*
X183233047Y-94888000D01*
X183271142Y-94830857D01*
X183271142Y-94945142D01*
X182547333Y-95230857D02*
X182547333Y-96202285D01*
X182585428Y-96316571D01*
X182623523Y-96373714D01*
X182699714Y-96430857D01*
X182814000Y-96430857D01*
X182890190Y-96373714D01*
X182547333Y-95973714D02*
X182623523Y-96030857D01*
X182775904Y-96030857D01*
X182852095Y-95973714D01*
X182890190Y-95916571D01*
X182928285Y-95802285D01*
X182928285Y-95459428D01*
X182890190Y-95345142D01*
X182852095Y-95288000D01*
X182775904Y-95230857D01*
X182623523Y-95230857D01*
X182547333Y-95288000D01*
X182166380Y-96030857D02*
X182166380Y-94830857D01*
X181823523Y-96030857D02*
X181823523Y-95402285D01*
X181861619Y-95288000D01*
X181937809Y-95230857D01*
X182052095Y-95230857D01*
X182128285Y-95288000D01*
X182166380Y-95345142D01*
X181556857Y-95230857D02*
X181252095Y-95230857D01*
X181442571Y-94830857D02*
X181442571Y-95859428D01*
X181404476Y-95973714D01*
X181328285Y-96030857D01*
X181252095Y-96030857D01*
X179728285Y-95116571D02*
X179804476Y-95059428D01*
X179956857Y-95059428D01*
X180033047Y-95116571D01*
X180109238Y-95230857D01*
X180147333Y-95345142D01*
X180147333Y-95573714D01*
X180109238Y-95688000D01*
X180033047Y-95802285D01*
X179956857Y-95859428D01*
X179804476Y-95859428D01*
X179728285Y-95802285D01*
X179880666Y-94659428D02*
X180071142Y-94716571D01*
X180261619Y-94888000D01*
X180375904Y-95173714D01*
X180414000Y-95459428D01*
X180375904Y-95745142D01*
X180261619Y-96030857D01*
X180071142Y-96202285D01*
X179880666Y-96259428D01*
X179690190Y-96202285D01*
X179499714Y-96030857D01*
X179385428Y-95745142D01*
X179347333Y-95459428D01*
X179385428Y-95173714D01*
X179499714Y-94888000D01*
X179690190Y-94716571D01*
X179880666Y-94659428D01*
X178433047Y-94945142D02*
X178394952Y-94888000D01*
X178318761Y-94830857D01*
X178128285Y-94830857D01*
X178052095Y-94888000D01*
X178014000Y-94945142D01*
X177975904Y-95059428D01*
X177975904Y-95173714D01*
X178014000Y-95345142D01*
X178471142Y-96030857D01*
X177975904Y-96030857D01*
X177480666Y-94830857D02*
X177404476Y-94830857D01*
X177328285Y-94888000D01*
X177290190Y-94945142D01*
X177252095Y-95059428D01*
X177214000Y-95288000D01*
X177214000Y-95573714D01*
X177252095Y-95802285D01*
X177290190Y-95916571D01*
X177328285Y-95973714D01*
X177404476Y-96030857D01*
X177480666Y-96030857D01*
X177556857Y-95973714D01*
X177594952Y-95916571D01*
X177633047Y-95802285D01*
X177671142Y-95573714D01*
X177671142Y-95288000D01*
X177633047Y-95059428D01*
X177594952Y-94945142D01*
X177556857Y-94888000D01*
X177480666Y-94830857D01*
X176452095Y-96030857D02*
X176909238Y-96030857D01*
X176680666Y-96030857D02*
X176680666Y-94830857D01*
X176756857Y-95002285D01*
X176833047Y-95116571D01*
X176909238Y-95173714D01*
X176071142Y-96030857D02*
X175918761Y-96030857D01*
X175842571Y-95973714D01*
X175804476Y-95916571D01*
X175728285Y-95745142D01*
X175690190Y-95516571D01*
X175690190Y-95059428D01*
X175728285Y-94945142D01*
X175766380Y-94888000D01*
X175842571Y-94830857D01*
X175994952Y-94830857D01*
X176071142Y-94888000D01*
X176109238Y-94945142D01*
X176147333Y-95059428D01*
X176147333Y-95345142D01*
X176109238Y-95459428D01*
X176071142Y-95516571D01*
X175994952Y-95573714D01*
X175842571Y-95573714D01*
X175766380Y-95516571D01*
X175728285Y-95459428D01*
X175690190Y-95345142D01*
X174509238Y-94830857D02*
X174509238Y-95688000D01*
X174547333Y-95859428D01*
X174623523Y-95973714D01*
X174737809Y-96030857D01*
X174814000Y-96030857D01*
X174014000Y-96030857D02*
X174090190Y-95973714D01*
X174128285Y-95916571D01*
X174166380Y-95802285D01*
X174166380Y-95459428D01*
X174128285Y-95345142D01*
X174090190Y-95288000D01*
X174014000Y-95230857D01*
X173899714Y-95230857D01*
X173823523Y-95288000D01*
X173785428Y-95345142D01*
X173747333Y-95459428D01*
X173747333Y-95802285D01*
X173785428Y-95916571D01*
X173823523Y-95973714D01*
X173899714Y-96030857D01*
X174014000Y-96030857D01*
X173404476Y-96030857D02*
X173404476Y-94830857D01*
X173061619Y-96030857D02*
X173061619Y-95402285D01*
X173099714Y-95288000D01*
X173175904Y-95230857D01*
X173290190Y-95230857D01*
X173366380Y-95288000D01*
X173404476Y-95345142D01*
X172680666Y-95230857D02*
X172680666Y-96030857D01*
X172680666Y-95345142D02*
X172642571Y-95288000D01*
X172566380Y-95230857D01*
X172452095Y-95230857D01*
X172375904Y-95288000D01*
X172337809Y-95402285D01*
X172337809Y-96030857D01*
X171423523Y-94830857D02*
X171233047Y-96030857D01*
X171080666Y-95173714D01*
X170928285Y-96030857D01*
X170737809Y-94830857D01*
X170433047Y-96030857D02*
X170433047Y-95230857D01*
X170433047Y-94830857D02*
X170471142Y-94888000D01*
X170433047Y-94945142D01*
X170394952Y-94888000D01*
X170433047Y-94830857D01*
X170433047Y-94945142D01*
X170052095Y-95230857D02*
X170052095Y-96030857D01*
X170052095Y-95345142D02*
X170014000Y-95288000D01*
X169937809Y-95230857D01*
X169823523Y-95230857D01*
X169747333Y-95288000D01*
X169709238Y-95402285D01*
X169709238Y-96030857D01*
X168985428Y-96030857D02*
X168985428Y-95402285D01*
X169023523Y-95288000D01*
X169099714Y-95230857D01*
X169252095Y-95230857D01*
X169328285Y-95288000D01*
X168985428Y-95973714D02*
X169061619Y-96030857D01*
X169252095Y-96030857D01*
X169328285Y-95973714D01*
X169366380Y-95859428D01*
X169366380Y-95745142D01*
X169328285Y-95630857D01*
X169252095Y-95573714D01*
X169061619Y-95573714D01*
X168985428Y-95516571D01*
X168604476Y-95230857D02*
X168604476Y-96030857D01*
X168604476Y-95345142D02*
X168566380Y-95288000D01*
X168490190Y-95230857D01*
X168375904Y-95230857D01*
X168299714Y-95288000D01*
X168261619Y-95402285D01*
X168261619Y-96030857D01*
X167918761Y-95973714D02*
X167842571Y-96030857D01*
X167690190Y-96030857D01*
X167614000Y-95973714D01*
X167575904Y-95859428D01*
X167575904Y-95802285D01*
X167614000Y-95688000D01*
X167690190Y-95630857D01*
X167804476Y-95630857D01*
X167880666Y-95573714D01*
X167918761Y-95459428D01*
X167918761Y-95402285D01*
X167880666Y-95288000D01*
X167804476Y-95230857D01*
X167690190Y-95230857D01*
X167614000Y-95288000D01*
D12*
X188731200Y-89602000D02*
X188731200Y-92262000D01*
X115011200Y-89602000D02*
X188731200Y-89602000D01*
X115011200Y-92262000D02*
X188731200Y-92262000D01*
X115011200Y-89602000D02*
X115011200Y-92262000D01*
X113741200Y-89602000D02*
X112411200Y-89602000D01*
X112411200Y-89602000D02*
X112411200Y-90932000D01*
X112411200Y-109922000D02*
X112411200Y-111252000D01*
X113741200Y-109922000D02*
X112411200Y-109922000D01*
X115011200Y-109922000D02*
X115011200Y-112582000D01*
X115011200Y-112582000D02*
X188731200Y-112582000D01*
X115011200Y-109922000D02*
X188731200Y-109922000D01*
X188731200Y-109922000D02*
X188731200Y-112582000D01*
D13*
X113922979Y-92250101D02*
X113922979Y-92964387D01*
X113970598Y-93107244D01*
X114065836Y-93202482D01*
X114208693Y-93250101D01*
X114303931Y-93250101D01*
X112922979Y-93250101D02*
X113494407Y-93250101D01*
X113208693Y-93250101D02*
X113208693Y-92250101D01*
X113303931Y-92392959D01*
X113399169Y-92488197D01*
X113494407Y-92535816D01*
X113999179Y-108785501D02*
X113999179Y-109499787D01*
X114046798Y-109642644D01*
X114142036Y-109737882D01*
X114284893Y-109785501D01*
X114380131Y-109785501D01*
X113570607Y-108880740D02*
X113522988Y-108833121D01*
X113427750Y-108785501D01*
X113189655Y-108785501D01*
X113094417Y-108833121D01*
X113046798Y-108880740D01*
X112999179Y-108975978D01*
X112999179Y-109071216D01*
X113046798Y-109214073D01*
X113618226Y-109785501D01*
X112999179Y-109785501D01*
%LPC*%
D14*
X115473000Y-107155000D03*
X115473000Y-99855000D03*
D15*
X119048000Y-104305000D03*
X119048000Y-102705000D03*
X120798000Y-105105000D03*
X120798000Y-101905000D03*
X120798000Y-103505000D03*
D16*
X113741200Y-90932000D03*
D17*
X116281200Y-90932000D03*
X118821200Y-90932000D03*
X121361200Y-90932000D03*
X123901200Y-90932000D03*
X126441200Y-90932000D03*
X128981200Y-90932000D03*
X131521200Y-90932000D03*
X134061200Y-90932000D03*
X136601200Y-90932000D03*
X139141200Y-90932000D03*
X141681200Y-90932000D03*
X144221200Y-90932000D03*
X146761200Y-90932000D03*
X149301200Y-90932000D03*
X151841200Y-90932000D03*
X154381200Y-90932000D03*
X156921200Y-90932000D03*
X159461200Y-90932000D03*
X162001200Y-90932000D03*
X164541200Y-90932000D03*
X167081200Y-90932000D03*
X169621200Y-90932000D03*
X172161200Y-90932000D03*
X174701200Y-90932000D03*
X177241200Y-90932000D03*
X179781200Y-90932000D03*
X182321200Y-90932000D03*
X184861200Y-90932000D03*
X187401200Y-90932000D03*
X187401200Y-111252000D03*
X184861200Y-111252000D03*
X182321200Y-111252000D03*
X179781200Y-111252000D03*
X177241200Y-111252000D03*
X174701200Y-111252000D03*
X172161200Y-111252000D03*
X169621200Y-111252000D03*
X167081200Y-111252000D03*
X164541200Y-111252000D03*
X162001200Y-111252000D03*
X159461200Y-111252000D03*
X156921200Y-111252000D03*
X154381200Y-111252000D03*
X151841200Y-111252000D03*
X149301200Y-111252000D03*
X146761200Y-111252000D03*
X144221200Y-111252000D03*
X141681200Y-111252000D03*
X139141200Y-111252000D03*
X136601200Y-111252000D03*
X134061200Y-111252000D03*
X131521200Y-111252000D03*
X128981200Y-111252000D03*
X126441200Y-111252000D03*
X123901200Y-111252000D03*
X121361200Y-111252000D03*
X118821200Y-111252000D03*
X116281200Y-111252000D03*
D16*
X113741200Y-111252000D03*
D18*
X177927000Y-100656000D03*
X171427000Y-100656000D03*
X171427000Y-105156000D03*
D19*
X177927000Y-105156000D03*
X187198000Y-105156000D03*
D18*
X180698000Y-105156000D03*
X180698000Y-100656000D03*
X187198000Y-100656000D03*
M02*
