M48
INCH,TZ
T1C0.0157
T2C0.0197
T3C0.0230
T4C0.0236
T5C0.0276
T6C0.0394
T7C0.0472
%
G90
G05
T1
X48680Y-39680
X49080Y-39680
X50900Y-37150
X53980Y-42100
X56600Y-40320
X56960Y-40320
X57780Y-41300
X58320Y-39440
X58550Y-40300
X58700Y-39000
X59200Y-40500
X59250Y-41050
X59557Y-41349
X59750Y-40550
X60000Y-37800
X60050Y-40850
X60300Y-36725
X60400Y-39235
X60500Y-37850
X60600Y-41900
X60850Y-39235
X61096Y-42850
X61300Y-39235
X61600Y-42500
X63550Y-39400
X63850Y-42500
X64300Y-39400
X65100Y-39400
X68400Y-37900
X68725Y-39325
X69050Y-39325
X69600Y-37650
X70250Y-37650
X71875Y-39325
X72300Y-39325
X72675Y-39325
X73750Y-42950
X73850Y-37150
T2
X67050Y-38450
X69050Y-38450
X72475Y-38450
T3
X55962Y-41892
T4
X48780Y-41400
X48860Y-38235
X49240Y-41400
X49680Y-41400
X52000Y-38234
X52000Y-39140
X52750Y-38250
X52800Y-39150
X54200Y-38150
X54580Y-39760
X54600Y-38150
X54740Y-39140
X55000Y-38150
X55040Y-39760
X55520Y-39760
X58036Y-42007
X59140Y-38520
X60050Y-38450
X61200Y-38500
X62270Y-43240
X64230Y-37532
T5
X57180Y-36704
X46978Y-40435
X46978Y-41065
X47450Y-40120
X47450Y-40750
X47450Y-41380
T6
X44780Y-43800
X45780Y-43800
X46780Y-43800
X47780Y-43800
X48780Y-43800
X49780Y-43800
X50780Y-43800
X51780Y-43800
X52780Y-43800
X53780Y-43800
X54780Y-43800
X55780Y-43800
X56780Y-43800
X57780Y-43800
X58780Y-43800
X59780Y-43800
X60780Y-43800
X61780Y-43800
X62780Y-43800
X63780Y-43800
X64780Y-43800
X65780Y-43800
X66780Y-43800
X67780Y-43800
X68780Y-43800
X69780Y-43800
X70780Y-43800
X71780Y-43800
X72780Y-43800
X73780Y-43800
X44780Y-35800
X45780Y-35800
X46780Y-35800
X47780Y-35800
X48780Y-35800
X49780Y-35800
X50780Y-35800
X51780Y-35800
X52780Y-35800
X53780Y-35800
X54780Y-35800
X55780Y-35800
X56780Y-35800
X57780Y-35800
X58780Y-35800
X59780Y-35800
X60780Y-35800
X61780Y-35800
X62780Y-35800
X63780Y-35800
X64780Y-35800
X65780Y-35800
X66780Y-35800
X67780Y-35800
X68780Y-35800
X69780Y-35800
X70780Y-35800
X71780Y-35800
X72780Y-35800
X73780Y-35800
T7
X71141Y-39628
X71141Y-41400
X73700Y-39628
X73700Y-41400
X67491Y-39628
X67491Y-41400
X70050Y-39628
X70050Y-41400
T5
G00X45226Y-39313
M15
G01X45698Y-39313
M16
G05
G00X45226Y-42187
M15
G01X45698Y-42187
M16
G05
T0
M30
